<svg id="instagram_1_" data-name="instagram (1)" xmlns="http://www.w3.org/2000/svg" width="37.278" height="37.278" viewBox="0 0 37.278 37.278">
  <path id="Tracé_2" data-name="Tracé 2" d="M214.135,210.568A3.568,3.568,0,1,1,210.568,207,3.568,3.568,0,0,1,214.135,210.568Zm0,0" transform="translate(-191.929 -191.929)" fill="#8881f5"/>
  <path id="Tracé_3" data-name="Tracé 3" d="M152.6,137.951a3.544,3.544,0,0,0-2.031-2.031,5.922,5.922,0,0,0-1.987-.368c-1.129-.051-1.467-.063-4.325-.063s-3.2.011-4.325.062a5.926,5.926,0,0,0-1.987.369,3.546,3.546,0,0,0-2.032,2.031,5.924,5.924,0,0,0-.368,1.987c-.051,1.129-.063,1.467-.063,4.325s.011,3.2.063,4.325a5.922,5.922,0,0,0,.368,1.987,3.544,3.544,0,0,0,2.031,2.031,5.915,5.915,0,0,0,1.987.369c1.129.051,1.467.062,4.325.062s3.2-.011,4.325-.062a5.914,5.914,0,0,0,1.987-.369,3.544,3.544,0,0,0,2.031-2.031,5.927,5.927,0,0,0,.369-1.987c.051-1.129.062-1.467.062-4.325s-.011-3.2-.062-4.325A5.914,5.914,0,0,0,152.6,137.951Zm-8.343,11.808a5.5,5.5,0,1,1,5.5-5.5A5.5,5.5,0,0,1,144.259,149.759Zm5.713-9.925a1.284,1.284,0,1,1,1.284-1.284A1.284,1.284,0,0,1,149.973,139.834Zm0,0" transform="translate(-125.62 -125.624)" fill="#8881f5"/>
  <path id="Tracé_4" data-name="Tracé 4" d="M18.639,0A18.639,18.639,0,1,0,37.278,18.639,18.641,18.641,0,0,0,18.639,0ZM29.277,23.052a7.853,7.853,0,0,1-.5,2.6,5.473,5.473,0,0,1-3.13,3.13,7.858,7.858,0,0,1-2.6.5c-1.141.052-1.506.065-4.413.065s-3.271-.013-4.413-.065a7.858,7.858,0,0,1-2.6-.5A5.473,5.473,0,0,1,8.5,25.65a7.851,7.851,0,0,1-.5-2.6c-.053-1.142-.065-1.506-.065-4.413s.012-3.271.065-4.413a7.853,7.853,0,0,1,.5-2.6A5.476,5.476,0,0,1,11.628,8.5a7.86,7.86,0,0,1,2.6-.5c1.141-.052,1.506-.065,4.413-.065s3.271.013,4.413.065a7.861,7.861,0,0,1,2.6.5,5.474,5.474,0,0,1,3.13,3.131,7.852,7.852,0,0,1,.5,2.6c.052,1.141.064,1.506.064,4.413S29.33,21.91,29.277,23.052Zm0,0" fill="#8881f5"/>
</svg>
