<svg xmlns="http://www.w3.org/2000/svg" width="37.278" height="37.278" viewBox="0 0 37.278 37.278">
  <path id="linkedin_1_" data-name="linkedin (1)" d="M18.639,0A18.639,18.639,0,1,0,37.278,18.639,18.641,18.641,0,0,0,18.639,0ZM13.223,28.177H8.683V14.52h4.539Zm-2.27-15.522h-.03a2.366,2.366,0,1,1,.06-4.719,2.367,2.367,0,1,1-.03,4.719ZM29.591,28.177H25.052V20.871c0-1.836-.657-3.088-2.3-3.088a2.485,2.485,0,0,0-2.329,1.66,3.109,3.109,0,0,0-.149,1.108v7.627H15.735s.059-12.376,0-13.657h4.539v1.934A4.507,4.507,0,0,1,24.365,14.2c2.987,0,5.226,1.952,5.226,6.147Zm0,0" fill="#8881f5"/>
</svg>
